<?xml version="1.0" encoding="utf-8"?>
<!-- Generator: Adobe Illustrator 22.1.0, SVG Export Plug-In . SVG Version: 6.00 Build 0)  -->
<svg version="1.1" id="Capa_1" xmlns="http://www.w3.org/2000/svg" xmlns:xlink="http://www.w3.org/1999/xlink" x="0px" y="0px"
	 viewBox="0 0 928 928" style="enable-background:new 0 0 928 928;" xml:space="preserve">
<style type="text/css">
	.st0{fill:#8FBCBB;}
</style>
<g>
	<g>
		<path class="st0" d="M836.5,820.5c-14.5,12.4-24.7,29.8-24.6,49.4c0.5,22.4,14.2,44.6,35,53.5c7.2,3.1,15,4.6,22.8,4.6
			c32.1,0,58.2-26,58.2-58.2c0-32.2-26-58.2-58.2-58.2c-1.4,0-2.8,0.1-4.1,0.2L768.8,715l56.3-56.3c6.2-6.2,6.2-16.4,0-22.6
			l-22.3-22.2c-6.2-6.2-16.4-6.2-22.6,0L613.7,780.5c-6.2,6.2-6.2,16.4,0,22.6l22.3,22.3c6.2,6.2,16.4,6.2,22.6,0l56.3-56.3
			l79.4,79.4c0.1-0.1,0.1-0.2,0.2-0.3c0.7-1,1.4-2.1,2.1-3.1c3-4,6.1-7.6,9.4-10.7c5.8-5.4,12.5-10.3,19.8-13.7
			c4.8-2.5,10-4.5,15.2-6c3.7-1.1,5.9-1.5,5.9-1.5s-1.9,1.1-5,3.3C840,817.7,838.2,819.1,836.5,820.5z"/>
		<path class="st0" d="M64.4,285.4c2.7,11.2,9.2,21.2,18.4,28.2l531.4,402.5l36-36L220,221.3l458.8,430.2l37.2-37.2L316.4,80.7
			c-7.1-9.5-17.3-16.1-28.9-18.8L18.4,0.4C7.5-2-2.2,7.7,0.4,18.6L64.4,285.4z"/>
	</g>
</g>
</svg>
